<svg width="24" height="24" viewBox="0 0 24 24" fill="none" xmlns="http://www.w3.org/2000/svg">
<g id="ph:eye-slash">
<path id="Vector" d="M5.05499 3.24544C4.98913 3.1712 4.90918 3.11077 4.81979 3.06765C4.7304 3.02453 4.63334 2.99958 4.53423 2.99425C4.43513 2.98892 4.33595 3.00331 4.24245 3.03659C4.14895 3.06987 4.06298 3.12137 3.98953 3.18812C3.91608 3.25487 3.85661 3.33554 3.81457 3.42544C3.77252 3.51534 3.74874 3.61269 3.7446 3.71186C3.74045 3.81102 3.75603 3.91002 3.79043 4.00311C3.82483 4.09621 3.87737 4.18155 3.94499 4.25419L5.74874 6.23888C2.34374 8.32857 0.879366 11.5498 0.814679 11.6961C0.772035 11.792 0.75 11.8958 0.75 12.0008C0.75 12.1057 0.772035 12.2095 0.814679 12.3054C0.847491 12.3795 1.64155 14.1401 3.40687 15.9054C5.75905 18.2567 8.72999 19.4998 12 19.4998C13.6806 19.5094 15.3442 19.1634 16.8816 18.4845L18.9441 20.7542C19.0099 20.8284 19.0899 20.8889 19.1793 20.932C19.2686 20.9751 19.3657 21.0001 19.4648 21.0054C19.5639 21.0107 19.6631 20.9963 19.7566 20.9631C19.8501 20.9298 19.9361 20.8783 20.0095 20.8115C20.083 20.7448 20.1424 20.6641 20.1845 20.5742C20.2265 20.4843 20.2503 20.3869 20.2544 20.2878C20.2586 20.1886 20.243 20.0896 20.2086 19.9965C20.1742 19.9034 20.1217 19.8181 20.0541 19.7454L5.05499 3.24544ZM9.49218 10.3554L13.3987 14.6539C12.8105 14.9634 12.136 15.0687 11.4814 14.9534C10.8268 14.838 10.229 14.5085 9.78188 14.0166C9.33481 13.5247 9.06377 12.8982 9.01134 12.2355C8.9589 11.5729 9.12803 10.9116 9.49218 10.3554ZM12 17.9998C9.11437 17.9998 6.59343 16.9508 4.50655 14.8826C3.64997 14.0314 2.92145 13.0603 2.34374 11.9998C2.78343 11.1758 4.18687 8.86951 6.7828 7.37044L8.4703 9.22201C7.81699 10.0587 7.48052 11.0995 7.52036 12.1603C7.56021 13.2211 7.97379 14.2337 8.68802 15.019C9.40225 15.8044 10.3711 16.312 11.4234 16.4521C12.4757 16.5921 13.5436 16.3557 14.4384 15.7845L15.8194 17.3033C14.6006 17.7708 13.3053 18.0071 12 17.9998ZM12.5625 9.05326C12.3671 9.01596 12.1944 8.90256 12.0826 8.73799C11.9708 8.57343 11.9289 8.37119 11.9662 8.17576C12.0035 7.98032 12.1169 7.80771 12.2815 7.6959C12.4461 7.58408 12.6483 7.54221 12.8437 7.57951C13.7996 7.76482 14.67 8.25418 15.325 8.97459C15.98 9.695 16.3846 10.6079 16.4784 11.577C16.4969 11.775 16.436 11.9723 16.3091 12.1255C16.1822 12.2786 15.9996 12.375 15.8016 12.3936C15.7781 12.3949 15.7547 12.3949 15.7312 12.3936C15.5438 12.3944 15.3628 12.3249 15.224 12.199C15.0852 12.073 14.9986 11.8996 14.9812 11.7129C14.9181 11.0683 14.6486 10.4613 14.2128 9.98208C13.7771 9.50288 13.1982 9.17713 12.5625 9.05326ZM23.1825 12.3054C23.1431 12.3936 22.1934 14.4964 20.055 16.4117C19.9819 16.4792 19.8961 16.5315 19.8027 16.5656C19.7092 16.5996 19.6098 16.6148 19.5105 16.6101C19.4111 16.6053 19.3136 16.5809 19.2238 16.5382C19.1339 16.4954 19.0535 16.4352 18.9871 16.3611C18.9208 16.287 18.8698 16.2004 18.8373 16.1064C18.8047 16.0124 18.7912 15.9128 18.7974 15.8135C18.8037 15.7142 18.8297 15.6172 18.8739 15.528C18.918 15.4388 18.9795 15.3594 19.0547 15.2942C20.1038 14.3516 20.9851 13.2377 21.6609 11.9998C21.0819 10.9384 20.3518 9.96665 19.4934 9.11513C17.4066 7.04888 14.8856 5.99982 12 5.99982C11.392 5.99908 10.7849 6.04831 10.185 6.14701C10.0874 6.16426 9.98741 6.16201 9.89072 6.14039C9.79404 6.11877 9.70259 6.07821 9.62167 6.02105C9.54074 5.96388 9.47195 5.89125 9.41925 5.80735C9.36656 5.72345 9.33101 5.62994 9.31466 5.53222C9.29832 5.4345 9.30149 5.33451 9.32401 5.23803C9.34652 5.14155 9.38793 5.05048 9.44584 4.97009C9.50375 4.8897 9.57701 4.82158 9.6614 4.76967C9.74579 4.71775 9.83963 4.68307 9.93749 4.66763C10.6192 4.55507 11.309 4.49894 12 4.49982C15.27 4.49982 18.2409 5.74294 20.5931 8.09513C22.3584 9.86044 23.1525 11.622 23.1853 11.6961C23.2279 11.792 23.25 11.8958 23.25 12.0008C23.25 12.1057 23.2279 12.2095 23.1853 12.3054H23.1825Z" fill="black"/>
</g>
</svg>
