
<svg width="102" height="102" viewBox="0 0 102 102" fill="none" xmlns="http://www.w3.org/2000/svg">
<g id="Group">
<g id="Group_2">
<path id="Vector" fill-rule="evenodd" clip-rule="evenodd" d="M15.2857 1H86.7143C90.5031 1 94.1367 2.5051 96.8158 5.18419C99.4949 7.86328 101 11.4969 101 15.2857V86.7143C101 90.5031 99.4949 94.1367 96.8158 96.8158C94.1367 99.4949 90.5031 101 86.7143 101H15.2857C11.4969 101 7.86328 99.4949 5.18419 96.8158C2.5051 94.1367 1 90.5031 1 86.7143V15.2857C1 11.4969 2.5051 7.86328 5.18419 5.18419C7.86328 2.5051 11.4969 1 15.2857 1Z" stroke="#006167" stroke-linecap="round" stroke-linejoin="round"/>
<g id="Vector_2">
<path fill-rule="evenodd" clip-rule="evenodd" d="M101 72.4291L79.5714 51.0006L58.1429 72.322M86.7143 101.001L22.4286 36.7148L1 58.1434" fill="#006167"/>
<path d="M101 72.4291L79.5714 51.0006L58.1429 72.322M86.7143 101.001L22.4286 36.7148L1 58.1434" stroke="black" stroke-linecap="round" stroke-linejoin="round"/>
</g>
</g>
<path id="Vector_3" d="M82.1431 26.0003C82.1431 29.3929 79.3929 32.1431 76.0003 32.1431C72.6077 32.1431 69.8574 29.3929 69.8574 26.0003C69.8574 22.6077 72.6077 19.8574 76.0003 19.8574C79.3929 19.8574 82.1431 22.6077 82.1431 26.0003Z" fill="#FABF00" stroke="#006167" stroke-width="2"/>

</g>
</svg>
