<svg width="31" height="30" viewBox="0 0 31 30" fill="none" xmlns="http://www.w3.org/2000/svg">
<g id="icon-instagram (1)" clip-path="url(#clip0_3051_2806)">
<g id="Group">
<path id="Vector" d="M12.8643 2.162C16.0683 2.162 16.4483 2.174 17.7133 2.232C19.0213 2.292 20.3683 2.59 21.3213 3.543C22.2833 4.505 22.5723 5.839 22.6323 7.151C22.6903 8.416 22.7023 8.796 22.7023 12C22.7023 15.204 22.6903 15.584 22.6323 16.849C22.5733 18.15 22.2683 19.51 21.3213 20.457C20.3593 21.419 19.0263 21.708 17.7133 21.768C16.4483 21.826 16.0683 21.838 12.8643 21.838C9.66026 21.838 9.28026 21.826 8.01526 21.768C6.72426 21.709 5.34626 21.397 4.40726 20.457C3.45026 19.5 3.15626 18.153 3.09626 16.849C3.03826 15.584 3.02626 15.204 3.02626 12C3.02626 8.796 3.03826 8.416 3.09626 7.151C3.15526 5.855 3.46326 4.487 4.40726 3.543C5.36726 2.583 6.70626 2.292 8.01526 2.232C9.28026 2.174 9.66026 2.162 12.8643 2.162ZM12.8643 0C9.60526 0 9.19626 0.014 7.91626 0.072C6.06126 0.157 4.21926 0.673 2.87826 2.014C1.53226 3.36 1.02126 5.198 0.936258 7.052C0.878258 8.332 0.864258 8.741 0.864258 12C0.864258 15.259 0.878258 15.668 0.936258 16.948C1.02126 18.801 1.53926 20.648 2.87826 21.986C4.22326 23.331 6.06426 23.843 7.91626 23.928C9.19626 23.986 9.60526 24 12.8643 24C16.1233 24 16.5323 23.986 17.8123 23.928C19.6663 23.843 21.5103 23.326 22.8503 21.986C24.1973 20.639 24.7073 18.802 24.7923 16.948C24.8503 15.668 24.8643 15.259 24.8643 12C24.8643 8.741 24.8503 8.332 24.7923 7.052C24.7073 5.197 24.1903 3.354 22.8503 2.014C21.5073 0.671 19.6613 0.156 17.8123 0.072C16.5323 0.014 16.1233 0 12.8643 0Z" fill="#FABF00"/>
<path id="Vector_2" d="M12.8641 5.83789C9.46115 5.83789 6.70215 8.59689 6.70215 11.9999C6.70215 15.4029 9.46115 18.1619 12.8641 18.1619C16.2671 18.1619 19.0262 15.4029 19.0262 11.9999C19.0262 8.59689 16.2671 5.83789 12.8641 5.83789ZM12.8641 15.9999C10.6551 15.9999 8.86415 14.2089 8.86415 11.9999C8.86415 9.79089 10.6551 7.99989 12.8641 7.99989C15.0731 7.99989 16.8642 9.79089 16.8642 11.9999C16.8642 14.2089 15.0731 15.9999 12.8641 15.9999Z" fill="#FABF00"/>
<path id="Vector_3" d="M19.2701 7.0343C20.0654 7.0343 20.7101 6.38959 20.7101 5.5943C20.7101 4.79901 20.0654 4.1543 19.2701 4.1543C18.4748 4.1543 17.8301 4.79901 17.8301 5.5943C17.8301 6.38959 18.4748 7.0343 19.2701 7.0343Z" fill="#FABF00"/>
</g>
</g>
<defs>
<clipPath id="clip0_3051_2806">
<rect width="30" height="30" fill="white" transform="translate(0.864258)"/>
</clipPath>
</defs>
</svg>
