<svg width="74" height="38" viewBox="0 0 74 38" fill="none" xmlns="http://www.w3.org/2000/svg">
<g id="logos:visa" clip-path="url(#clip0_2941_10759)">
<path id="Vector" d="M38.271 12.3285C38.2288 17.4827 41.2377 20.3588 43.5042 22.069C45.8329 23.8235 46.6151 24.9487 46.6058 26.5179C46.5885 28.9191 44.7483 29.979 43.0264 30.0202C40.0222 30.0922 38.2753 28.7643 36.8867 27.7599L35.8044 35.6009C37.1977 36.595 39.7776 37.462 42.4529 37.5C48.7328 37.5 52.8412 32.7002 52.8635 25.2584C52.888 15.8137 44.4263 15.291 44.4841 11.0694C44.5041 9.78939 45.2929 8.42339 47.0215 8.07608C47.8771 7.90063 50.2391 7.76636 52.9169 9.6757L53.968 2.08934C52.5279 1.27744 50.677 0.5 48.3726 0.5C42.4618 0.5 38.3045 5.36512 38.271 12.3285ZM64.0672 1.15346C62.9205 1.15346 61.9542 2.18914 61.5229 3.77847L52.5524 36.9428H58.8277L60.0764 31.5992H67.7447L68.4691 36.9428H74L69.1735 1.15346H64.0672ZM64.9451 10.8215L66.7561 24.2608H61.7964L64.9451 10.8215ZM30.6626 1.1539L25.7162 36.9423H31.696L36.6401 1.15301H30.6626M21.8164 1.15301L15.5923 25.5131L13.0746 4.80074C12.7792 2.48857 11.6125 1.15346 10.3169 1.15346H0.142508L0 2.19272C2.08877 2.89452 4.46197 4.02643 5.89977 5.23756C6.77967 5.9774 7.03058 6.62415 7.31964 8.38222L12.0883 36.9428H18.4075L28.0957 1.15346L21.8164 1.15301Z" fill="url(#paint0_linear_2941_10759)"/>
</g>
<defs>
<linearGradient id="paint0_linear_2941_10759" x1="3402.08" y1="111.722" x2="3567.72" y2="-3684.02" gradientUnits="userSpaceOnUse">
<stop stop-color="#222357"/>
<stop offset="1" stop-color="#254AA5"/>
</linearGradient>
<clipPath id="clip0_2941_10759">
<rect width="74" height="37" fill="white" transform="translate(0 0.5)"/>
</clipPath>
</defs>
</svg>
