<svg width="43" height="50" viewBox="0 0 43 50" fill="none" xmlns="http://www.w3.org/2000/svg">
<g id="logos:paypal" clip-path="url(#clip0_2941_10761)">
<path id="Vector" d="M36.4794 3.89155C34.1389 1.26208 29.9081 0.134766 24.4956 0.134766H8.78721C8.2517 0.134785 7.73376 0.3231 7.32651 0.665853C6.91926 1.00861 6.64942 1.48332 6.56549 2.00463L0.0247857 42.8932C-0.105222 43.6995 0.528188 44.4296 1.35728 44.4296H11.0551L13.4907 29.2026L13.4151 29.6795C13.5886 28.6031 14.5225 27.8093 15.6284 27.8093H20.2368C29.29 27.8093 36.3788 24.1848 38.4495 13.6998C38.511 13.3897 38.5642 13.0879 38.6102 12.793C38.3489 12.6566 38.3489 12.6566 38.6102 12.793C39.2268 8.91771 38.606 6.2798 36.4794 3.89155Z" fill="#27346A"/>
<path id="Vector_2" d="M17.2014 11.397C17.4666 11.2726 17.7565 11.2081 18.0502 11.2083H30.3653C31.8236 11.2083 33.1838 11.3018 34.4268 11.499C34.7746 11.5537 35.1206 11.6189 35.4643 11.6947C35.9515 11.8007 36.4331 11.9303 36.9072 12.0833C37.5183 12.2844 38.0873 12.5187 38.6104 12.793C39.2268 8.91622 38.606 6.2798 36.4794 3.89155C34.1376 1.26208 29.9081 0.134766 24.4956 0.134766H8.78587C7.67979 0.134766 6.73883 0.928474 6.56549 2.00463L0.0247867 42.8917C-0.105221 43.6993 0.528189 44.4285 1.35594 44.4285H11.0551L16.1081 12.844C16.1578 12.5336 16.2833 12.2397 16.4737 11.9876C16.6642 11.7356 16.9139 11.5329 17.2014 11.397Z" fill="#27346A"/>
<path id="Vector_3" d="M38.4461 13.6998C36.3754 24.1832 29.2868 27.8092 20.2335 27.8092H15.6237C14.5178 27.8092 13.5837 28.6031 13.4119 29.6794L10.3819 48.6123C10.2687 49.318 10.8223 49.9574 11.5466 49.9574H19.7217C20.1899 49.9572 20.6428 49.7924 20.9989 49.4926C21.3549 49.1927 21.5907 48.7775 21.6639 48.3216L21.7435 47.911L23.2843 38.2858L23.3835 37.7539C23.4567 37.298 23.6925 36.8828 24.0485 36.583C24.4045 36.2831 24.8573 36.1183 25.3256 36.1181H26.5491C34.4683 36.1181 40.6692 32.9469 42.4813 23.7754C43.2376 19.9426 42.8463 16.7426 40.8454 14.495C40.2385 13.8142 39.4849 13.2519 38.6069 12.793C38.5594 13.0893 38.5078 13.3897 38.4461 13.6998Z" fill="#2790C3"/>
<path id="Vector_4" d="M36.4407 11.9423C36.1179 11.8493 35.7919 11.7671 35.4635 11.6956C35.1196 11.621 34.7736 11.5562 34.4259 11.5012C33.1816 11.3027 31.8224 11.209 30.3628 11.209H18.0492C17.7553 11.2083 17.4651 11.2734 17.2004 11.3992C16.9126 11.5347 16.6625 11.7372 16.472 11.9894C16.2815 12.2415 16.1562 12.5356 16.1069 12.8462L13.4896 29.2035L13.4141 29.6803C13.5862 28.604 14.5201 27.8101 15.6262 27.8101H20.2359C29.2891 27.8101 36.3777 24.1856 38.4485 13.7007C38.5101 13.3906 38.5618 13.0901 38.6094 12.7939C38.085 12.5211 37.5174 12.2853 36.9062 12.0855C36.7519 12.0351 36.5968 11.9873 36.4409 11.9423" fill="#1F264F"/>
</g>
<defs>
<clipPath id="clip0_2941_10761">
<rect width="43" height="50" fill="white"/>
</clipPath>
</defs>
</svg>
