<svg width="26" height="25" viewBox="0 0 26 25" fill="none" xmlns="http://www.w3.org/2000/svg">
<g id="mdi:youtube">
<path id="Vector" d="M11.2806 15.6257L16.6868 12.5007L11.2806 9.37565V15.6257ZM23.3223 7.4694C23.4577 7.95898 23.5514 8.61523 23.6139 9.44857C23.6869 10.2819 23.7181 11.0007 23.7181 11.6257L23.7806 12.5007C23.7806 14.7819 23.6139 16.459 23.3223 17.5319C23.0618 18.4694 22.4577 19.0736 21.5202 19.334C21.0306 19.4694 20.1348 19.5632 18.7598 19.6257C17.4056 19.6986 16.166 19.7298 15.0202 19.7298L13.3639 19.7923C8.99935 19.7923 6.2806 19.6257 5.20768 19.334C4.27018 19.0736 3.66602 18.4694 3.4056 17.5319C3.27018 17.0423 3.17643 16.3861 3.11393 15.5527C3.04102 14.7194 3.00977 14.0007 3.00977 13.3757L2.94727 12.5007C2.94727 10.2194 3.11393 8.54232 3.4056 7.4694C3.66602 6.5319 4.27018 5.92773 5.20768 5.66732C5.69727 5.5319 6.5931 5.43815 7.9681 5.37565C9.32227 5.30273 10.5618 5.27148 11.7077 5.27148L13.3639 5.20898C17.7285 5.20898 20.4473 5.37565 21.5202 5.66732C22.4577 5.92773 23.0618 6.5319 23.3223 7.4694Z" fill="#FABF00"/>
</g>
</svg>
