<svg width="25" height="24" viewBox="0 0 25 24" fill="none" xmlns="http://www.w3.org/2000/svg">
<path id="Vector" d="M12.8643 0C6.23635 0 0.864258 5.37209 0.864258 12C0.864258 18.6279 6.23635 24 12.8643 24C19.4922 24 24.8643 18.6279 24.8643 12C24.8643 5.37209 19.4922 0 12.8643 0ZM9.20844 18.293H6.28519V8.89535H9.20844V18.293ZM7.74333 7.60465C6.80844 7.60465 6.04798 6.84419 6.04798 5.9093C6.04798 4.97442 6.80844 4.21395 7.74333 4.21395C8.67821 4.21395 9.43868 4.97442 9.43868 5.9093C9.43868 6.84419 8.67821 7.60465 7.74333 7.60465ZM20.141 18.293H17.2247V13.7233C17.2247 12.6349 17.2038 11.2326 15.7038 11.2326C14.1829 11.2326 13.9526 12.4186 13.9526 13.6465V18.3H11.0364V8.89535H13.841V10.1791H13.8759C14.448 9.20233 15.5084 8.61628 16.6387 8.65814C19.5968 8.65814 20.141 10.6047 20.141 13.1372V18.293Z" fill="#FABF00"/>
</svg>
