<svg width="41" height="40" viewBox="0 0 41 40" fill="none" xmlns="http://www.w3.org/2000/svg">
<g id="flat-color-icons:google">
<path id="Vector" d="M36.8432 16.7355H35.5007V16.6663H20.5007V23.333H29.9198C28.5457 27.2138 24.8532 29.9997 20.5007 29.9997C14.9782 29.9997 10.5007 25.5222 10.5007 19.9997C10.5007 14.4772 14.9782 9.99967 20.5007 9.99967C23.0498 9.99967 25.369 10.9613 27.1348 12.5322L31.849 7.81801C28.8723 5.04384 24.8906 3.33301 20.5007 3.33301C11.2965 3.33301 3.83398 10.7955 3.83398 19.9997C3.83398 29.2038 11.2965 36.6663 20.5007 36.6663C29.7048 36.6663 37.1673 29.2038 37.1673 19.9997C37.1673 18.8822 37.0523 17.7913 36.8432 16.7355Z" fill="#FFC107"/>
<path id="Vector_2" d="M5.75586 12.2422L11.2317 16.258C12.7134 12.5897 16.3017 9.99967 20.5009 9.99967C23.05 9.99967 25.3692 10.9613 27.135 12.5322L31.8492 7.81801C28.8725 5.04384 24.8909 3.33301 20.5009 3.33301C14.0992 3.33301 8.54753 6.94717 5.75586 12.2422Z" fill="#FF3D00"/>
<path id="Vector_3" d="M20.4996 36.6663C24.8046 36.6663 28.7163 35.0188 31.6738 32.3396L26.5154 27.9746C24.7859 29.2899 22.6725 30.0013 20.4996 29.9996C16.1646 29.9996 12.4838 27.2354 11.0971 23.3779L5.66211 27.5654C8.42044 32.9629 14.0221 36.6663 20.4996 36.6663Z" fill="#4CAF50"/>
<path id="Vector_4" d="M36.8425 16.7362H35.5V16.667H20.5V23.3337H29.9192C29.2618 25.1807 28.0778 26.7946 26.5133 27.9762L26.5158 27.9745L31.6742 32.3395C31.3092 32.6712 37.1667 28.3337 37.1667 20.0003C37.1667 18.8828 37.0517 17.792 36.8425 16.7362Z" fill="#1976D2"/>
</g>
</svg>
