<svg width="36" height="36" viewBox="0 0 36 36" fill="none" xmlns="http://www.w3.org/2000/svg">
<g id="twemoji:flag-us-outlying-islands" clip-path="url(#clip0_1650_6736)">
<path id="Vector" d="M35.445 7C34.752 5.809 33.477 5 32 5H18V7H35.445ZM0 25H36V27H0V25ZM18 17H36V19H18V17ZM18 13H36V15H18V13ZM0 21H36V23H0V21ZM4 31H32C33.477 31 34.752 30.191 35.445 29H0.555C1.248 30.191 2.523 31 4 31ZM18 9H36V11H18V9Z" fill="#B22334"/>
<path id="Vector_2" d="M0.068 27.679C0.085 27.772 0.104 27.865 0.127 27.956C0.153 28.057 0.185 28.154 0.219 28.252C0.308 28.511 0.416 28.761 0.552 28.995L0.555 29H35.445L35.447 28.996C35.5812 28.7602 35.6924 28.5121 35.779 28.255C35.8449 28.0673 35.8957 27.8747 35.931 27.679C35.972 27.459 36 27.233 36 27H0C0 27.233 0.028 27.458 0.068 27.679ZM0 23H36V25H0V23ZM0 19V21H36V19H18H0ZM18 15H36V17H18V15ZM18 11H36V13H18V11ZM0.128 8.044C0.153 7.942 0.188 7.845 0.22 7.747C0.185273 7.8447 0.15458 7.94378 0.128 8.044ZM18 9H36C36 8.767 35.972 8.541 35.931 8.32C35.896 8.12411 35.8448 7.93145 35.778 7.744C35.6913 7.48581 35.5798 7.23665 35.445 7H18V9Z" fill="#EEEEEE"/>
<path id="Vector_3" d="M18 5H4C2.93913 5 1.92172 5.42143 1.17157 6.17157C0.421427 6.92172 0 7.93913 0 9L0 19H18V5Z" fill="#3C3B6E"/>
<path id="Vector_4" d="M2.00195 7.726L2.61995 8.175L2.38395 8.9L3.00095 8.452L3.61895 8.9L3.38295 8.175L4.00095 7.726H3.23695L3.00095 7L2.76595 7.726H2.00195ZM4.00195 9.726L4.61995 10.175L4.38395 10.9L5.00095 10.452L5.61895 10.9L5.38295 10.175L6.00095 9.726H5.23695L5.00095 9L4.76595 9.726H4.00195ZM8.00195 9.726L8.61995 10.175L8.38395 10.9L9.00095 10.452L9.61895 10.9L9.38295 10.175L10.001 9.726H9.23695L9.00095 9L8.76595 9.726H8.00195ZM12.002 9.726L12.62 10.175L12.384 10.9L13.001 10.452L13.619 10.9L13.383 10.175L14.001 9.726H13.237L13.001 9L12.766 9.726H12.002ZM4.00195 13.726L4.61995 14.175L4.38395 14.9L5.00095 14.452L5.61895 14.9L5.38295 14.175L6.00095 13.726H5.23695L5.00095 13L4.76595 13.726H4.00195ZM8.00195 13.726L8.61995 14.175L8.38395 14.9L9.00095 14.452L9.61895 14.9L9.38295 14.175L10.001 13.726H9.23695L9.00095 13L8.76595 13.726H8.00195ZM12.002 13.726L12.62 14.175L12.384 14.9L13.001 14.452L13.619 14.9L13.383 14.175L14.001 13.726H13.237L13.001 13L12.766 13.726H12.002ZM6.00195 7.726L6.61995 8.175L6.38395 8.9L7.00095 8.452L7.61895 8.9L7.38295 8.175L8.00095 7.726H7.23695L7.00095 7L6.76595 7.726H6.00195ZM10.002 7.726L10.62 8.175L10.384 8.9L11.001 8.452L11.619 8.9L11.383 8.175L12.001 7.726H11.237L11.001 7L10.766 7.726H10.002ZM14.002 7.726L14.62 8.175L14.384 8.9L15.001 8.452L15.619 8.9L15.383 8.175L16.001 7.726H15.237L15.001 7L14.766 7.726H14.002ZM2.00195 11.726L2.61995 12.175L2.38395 12.9L3.00095 12.452L3.61895 12.9L3.38295 12.175L4.00095 11.726H3.23695L3.00095 11L2.76595 11.726H2.00195ZM6.38395 12.9L7.00095 12.452L7.61895 12.9L7.38295 12.175L8.00095 11.726H7.23695L7.00095 11L6.76595 11.726H6.00195L6.61995 12.175L6.38395 12.9ZM10.002 11.726L10.62 12.175L10.384 12.9L11.001 12.452L11.619 12.9L11.383 12.175L12.001 11.726H11.237L11.001 11L10.766 11.726H10.002ZM14.002 11.726L14.62 12.175L14.384 12.9L15.001 12.452L15.619 12.9L15.383 12.175L16.001 11.726H15.237L15.001 11L14.766 11.726H14.002ZM2.00195 15.726L2.61995 16.175L2.38395 16.9L3.00095 16.452L3.61895 16.9L3.38295 16.175L4.00095 15.726H3.23695L3.00095 15L2.76595 15.726H2.00195ZM6.38395 16.9L7.00095 16.452L7.61895 16.9L7.38295 16.175L8.00095 15.726H7.23695L7.00095 15L6.76595 15.726H6.00195L6.61995 16.175L6.38395 16.9ZM10.002 15.726L10.62 16.175L10.384 16.9L11.001 16.452L11.619 16.9L11.383 16.175L12.001 15.726H11.237L11.001 15L10.766 15.726H10.002ZM14.002 15.726L14.62 16.175L14.384 16.9L15.001 16.452L15.619 16.9L15.383 16.175L16.001 15.726H15.237L15.001 15L14.766 15.726H14.002Z" fill="white"/>
</g>
<defs>
<clipPath id="clip0_1650_6736">
<rect width="36" height="36" fill="white"/>
</clipPath>
</defs>
</svg>
