<svg width="138" height="116" viewBox="0 0 138 116" fill="none" xmlns="http://www.w3.org/2000/svg">
<g id="Group 2728">
<ellipse id="Ellipse 1123" cx="69" cy="58" rx="69" ry="58" fill="white"/>
<path id="Vector" d="M104 46.125C104 43.3063 100.895 41 97.1 41H41.9C38.105 41 35 43.3063 35 46.125V76.875C35 79.6937 38.105 82 41.9 82H97.1C100.895 82 104 79.6937 104 76.875V46.125ZM97.1 46.125L69.5 58.9375L41.9 46.125H97.1ZM97.1 76.875H41.9V51.25L69.5 64.0625L97.1 51.25V76.875Z" fill="#006167"/>
<path id="Vector_2" d="M92.5966 40.5211L90.9151 39.1169C84.9429 34.1488 81 30.8616 81 26.851C81 23.5638 83.8064 21 87.3782 21C89.396 21 91.3326 21.8617 92.5966 23.2127C93.8607 21.8617 95.7973 21 97.8151 21C101.387 21 104.193 23.5638 104.193 26.851C104.193 30.8616 100.25 34.1488 94.2782 39.1169L92.5966 40.5211Z" fill="#D90000"/>
<path id="Vector_3" d="M111.327 71.9225L109.646 70.5183C103.673 65.5502 99.7305 62.263 99.7305 58.2524C99.7305 54.9652 102.537 52.4014 106.109 52.4014C108.126 52.4014 110.063 53.2631 111.327 54.6141C112.591 53.2631 114.528 52.4014 116.546 52.4014C120.117 52.4014 122.924 54.9652 122.924 58.2524C122.924 62.263 118.981 65.5502 113.009 70.5183L111.327 71.9225Z" fill="#D90000"/>
<path id="Vector_4" d="M60.3017 33.7584L58.6202 32.3542C52.6479 27.3861 48.7051 24.0989 48.7051 20.0883C48.7051 16.8011 51.5115 14.2373 55.0832 14.2373C57.101 14.2373 59.0377 15.099 60.3017 16.4501C61.5658 15.099 63.5024 14.2373 65.5202 14.2373C69.092 14.2373 71.8984 16.8011 71.8984 20.0883C71.8984 24.0989 67.9555 27.3861 61.9832 32.3542L60.3017 33.7584Z" fill="#D90000"/>
</g>
</svg>
